<?xml version="1.0" standalone="no"?>
<!DOCTYPE svg PUBLIC "-//W3C//DTD SVG 1.1//EN"
  "http://www.w3.org/Graphics/SVG/1.1/DTD/svg11.dtd">
<svg version="1.1" xmlns="http://www.w3.org/2000/svg" xmlns:xlink="http://www.w3.org/1999/xlink" width="1792" height="1063" viewBox="-992 -32 1792 1063" id="ccdiagram"><filter id="grayscale"><feColorMatrix type="saturate" values="0"></feColorMatrix></filter><filter id="highlight"><feColorMatrix type="matrix" color-interpolation-filters="sRGB" values="0.20338 0 0 0 0
                0 0.58474 0 0 0
                0 0 0.97033 0 0
                0 0 0 1 0"></feColorMatrix></filter><defs><style type="text/css">@import url('https://fonts.googleapis.com/css?family=Open+Sans:400,700|Inconsolata:400');</style></defs><g><rect x="-992" y="-32" width="1792" height="1063" fill="#ffffff" id="interactionLayer"></rect><g style="pointer-events: none;"><g><pattern id="gridPatternMinor" x="0" y="37" width="128" height="74" patternUnits="userSpaceOnUse"><path d="M 0 0 L 128 74" stroke="#eeeeee" stroke-width="1"></path><path d="M 128 0 L 0 74" stroke="#eeeeee" stroke-width="1"></path></pattern><polygon points="0 0, 768 444, -192 999, -960 555" fill="url(#gridPatternMinor)"></polygon></g><polygon points="-960 555, -960 565, -192 1009, -192 999" stroke="#54626f" fill="#f9f9f9" stroke-linejoin="round" stroke-width="1"></polygon><polygon points="-192 1009, 768 454, 768 444, -192 999" stroke="#54626f" fill="#e2e2e2" stroke-linejoin="round" stroke-width="1"></polygon></g><g pointer-events="auto"></g><g style="pointer-events: none;"><g><pattern id="gridPatternMajor" x="0" y="37" width="128" height="74" patternUnits="userSpaceOnUse"><path d="M 64 0 L 128 37 64 74 0 37 z" stroke="#54626f" stroke-width="1" fill="none"></path></pattern><polygon points="0 0, 768 444, -192 999, -960 555" fill="url(#gridPatternMajor)"></polygon></g></g><g pointer-events="auto"></g><g pointer-events="auto"></g><g></g><g pointer-events="auto"></g><g></g><g pointer-events="auto"></g><g pointer-events="auto"></g><g pointer-events="none"></g><g pointer-events="auto"><g id="1b19c323-1b14-412e-8922-d1dcce27bde9-0b8f753a-8381-4efc-85bf-b332d0386a49"><g cursor="cell"><line x1="-384" y1="629" x2="-323" y2="593" stroke="red" stroke-width="8" opacity="0"></line><line x1="-384" y1="629" x2="-323" y2="593" stroke="#000000" stroke-width="2" stroke-linecap="round"></line><polygon points="-313 588, -338 593, -325 595, -322 603, -313 588" stroke-linejoin="round" fill="#000000" stroke="#000000" stroke-width="1"></polygon></g></g><g id="0b8f753a-8381-4efc-85bf-b332d0386a49-6b4a0cc4-3f48-4736-8ed3-b01b0d353c65"><g cursor="cell"><line x1="-203" y1="524" x2="-106" y2="468" stroke="red" stroke-width="8" opacity="0"></line><line x1="-203" y1="524" x2="-106" y2="468" stroke="#000000" stroke-width="2" stroke-linecap="round"></line><polygon points="-96 463, -122 468, -108 470, -105 477, -96 463" stroke-linejoin="round" fill="#000000" stroke="#000000" stroke-width="1"></polygon></g></g><g id="6b4a0cc4-3f48-4736-8ed3-b01b0d353c65-c2e7373a-38aa-4ab9-8f5a-57710bfc7f70"><g cursor="cell"><line x1="-16" y1="416" x2="128" y2="333" stroke="red" stroke-width="8" opacity="0"></line><line x1="-16" y1="416" x2="128" y2="333" stroke="#000000" stroke-width="2" stroke-linecap="round"></line></g></g><g id="c2e7373a-38aa-4ab9-8f5a-57710bfc7f70-0f3bd93f-3b65-466c-bc88-4717bc8f35be"><g cursor="cell"><line x1="128" y1="333" x2="22" y2="272" stroke="red" stroke-width="8" opacity="0"></line><line x1="128" y1="333" x2="22" y2="272" stroke="#000000" stroke-width="2" stroke-linecap="round"></line><polygon points="13 266, 22 281, 25 274, 38 272, 13 266" stroke-linejoin="round" fill="#000000" stroke="#000000" stroke-width="1"></polygon></g></g><g id="c2e7373a-38aa-4ab9-8f5a-57710bfc7f70-2f1372cd-4af6-4f24-b63a-8db5e576ce14"><g cursor="cell"><line x1="128" y1="333" x2="214" y2="383" stroke="red" stroke-width="8" opacity="0"></line><line x1="128" y1="333" x2="214" y2="383" stroke="#000000" stroke-width="2" stroke-linecap="round"></line><polygon points="224 389, 215 374, 212 381, 198 383, 224 389" stroke-linejoin="round" fill="#000000" stroke="#000000" stroke-width="1"></polygon></g></g></g><g pointer-events="auto"><g><g id="0f3bd93f-3b65-466c-bc88-4717bc8f35be"><svg x="-51" y="157" width="100.625" height="115.695" viewBox="0 0 26.624 30.611"><path fill="#4286c5" d="M13.312.306v15l12.99-7.5z" fill-rule="evenodd"></path><path fill="#26527b" d="m.321 7.806 12.99 7.5v-15z" fill-rule="evenodd"></path><path fill="none" stroke="#020406" d="M13.312.306v15" stroke-width=".265"></path><path fill="#26527b" d="m13.312 15.306 12.99-7.5-6.495 18.75-6.495 3.75z" fill-rule="evenodd"></path><path fill="#326ca2" d="m.321 7.806 12.99 7.5v15l-6.494-3.75z" fill-rule="evenodd"></path><path fill="none" stroke="#0e1e2d" d="m.321 7.806 12.99 7.5 12.991-7.5-12.99 7.5v15" stroke-width=".265"></path><path fill="none" stroke="#000000" d="m13.312.306-12.99 7.5 6.495 18.75 6.495 3.75 6.495-3.75 6.495-18.75z" stroke-width=".529"></path></svg></g></g><g><g id="2f1372cd-4af6-4f24-b63a-8db5e576ce14"><svg x="205" y="305" width="100.625" height="115.695" viewBox="0 0 26.624 30.611"><path fill="#4286c5" d="M13.312.306v15l12.99-7.5z" fill-rule="evenodd"></path><path fill="#26527b" d="m.321 7.806 12.99 7.5v-15z" fill-rule="evenodd"></path><path fill="none" stroke="#020406" d="M13.312.306v15" stroke-width=".265"></path><path fill="#26527b" d="m13.312 15.306 12.99-7.5-6.495 18.75-6.495 3.75z" fill-rule="evenodd"></path><path fill="#326ca2" d="m.321 7.806 12.99 7.5v15l-6.494-3.75z" fill-rule="evenodd"></path><path fill="none" stroke="#0e1e2d" d="m.321 7.806 12.99 7.5 12.991-7.5-12.99 7.5v15" stroke-width=".265"></path><path fill="none" stroke="#000000" d="m13.312.306-12.99 7.5 6.495 18.75 6.495 3.75 6.495-3.75 6.495-18.75z" stroke-width=".529"></path></svg></g></g><g><g id="6b4a0cc4-3f48-4736-8ed3-b01b0d353c65"><svg x="-112" y="358" width="96" height="113.438" viewBox="0 0 25.4 30.014"><g transform="translate(412.599 -86.957)"><path fill="#3c3c3c" d="M-412.332 102.354v4.786l8.289 4.786h8.29l8.288-4.786v-4.786l-8.289-4.786h-8.29z" fill-rule="evenodd"></path><path fill="#090909" d="m-395.754 111.926 8.29-4.786v4.786l-8.29 4.785z" fill-rule="evenodd"></path><path fill="#232323" d="M-404.043 111.926h8.29v4.785h-8.29zm-8.29-4.786v4.786l8.29 4.785v-4.785z" fill-rule="evenodd"></path><path fill="none" stroke="#000" d="m-412.332 107.14 8.289 4.786h8.29l8.288-4.786m-16.578 4.786v4.785m8.29-4.785v4.785" stroke-width=".266"></path><path fill="none" stroke="#000000" d="M-412.332 102.354v9.572l8.289 4.785h8.29l8.288-4.785v-9.572l-8.289-4.786h-8.29z" stroke-width=".532"></path><path fill="#3c3c3c" d="M-412.333 97.178v4.786l8.29 4.786h8.289l8.29-4.786v-4.786l-8.29-4.786h-8.29z" fill-rule="evenodd"></path><path fill="#090909" d="m-395.754 106.75 8.29-4.786v4.786l-8.29 4.786z" fill-rule="evenodd"></path><path fill="#232323" d="M-404.044 106.75h8.29v4.786h-8.29z" fill-rule="evenodd"></path><path fill="#232323" d="M-412.333 101.964v4.786l8.29 4.786v-4.786z" fill-rule="evenodd"></path><path fill="none" stroke="#000" d="m-412.333 101.964 8.29 4.786h8.289l8.29-4.786m-16.58 4.786v4.786m8.29-4.786v4.786" stroke-width=".266"></path><path fill="none" stroke="#000000" d="M-412.333 97.178v9.572l8.29 4.786h8.289l8.29-4.786v-9.572l-8.29-4.786h-8.29z" stroke-width=".532"></path><path fill="#3c3c3c" d="M-412.333 92.01v4.785l8.29 4.786h8.289l8.29-4.786v-4.786l-8.29-4.786h-8.29z" fill-rule="evenodd"></path><path fill="#090909" d="m-395.754 101.58 8.29-4.785v4.786l-8.29 4.786z" fill-rule="evenodd"></path><path fill="#232323" d="M-404.044 101.58h8.29v4.787h-8.29z" fill-rule="evenodd"></path><path fill="#232323" d="M-412.333 96.795v4.786l8.29 4.786v-4.786z" fill-rule="evenodd"></path><path fill="none" stroke="#000" d="m-412.333 96.795 8.29 4.786h8.289l8.29-4.786m-16.58 4.785v4.787m8.29-4.787v4.787" stroke-width=".266"></path><path fill="none" stroke="#000000" d="M-412.333 92.01v9.57l8.29 4.787h8.289l8.29-4.786v-9.572l-8.29-4.786h-8.29z" stroke-width=".532"></path><circle cx="-136.478" cy="325.284" r="5.801" fill="#f4b934" transform="scale(1.22475 .7071) rotate(45)"></circle><g><path fill="#ffffff" d="m-127.434 301.586-.302-.818q-.136-.375-.321-.512-.18-.136-.638-.136h-.545v-1.144h1.007q.887 0 1.364.375.482.375.813 1.26l2.23 5.94h-1.744l-1.085-2.862-1.144 2.862h-1.743z" transform="scale(1.31605 .75985) rotate(45)" font-family="Droid Serif" font-size="9.971"></path></g></g></svg></g></g><g><g id="0b8f753a-8381-4efc-85bf-b332d0386a49"><svg x="-339" y="506" width="167.64" height="97.168" viewBox="0 0 44.355 25.709"><path fill="#f4b934" stroke="#000000" d="m33.976 7.743-2.77-1.6 2.631-.72 2.634-.72-1.249 1.52z" stroke-linecap="round" stroke-width=".265"></path><path fill="#ececed" d="m16.763 18.903 6.762 6.492 20.283-11.711-6.761-6.415" fill-rule="evenodd"></path><path fill="#f4b934" stroke="#000000" d="m28.9 10.627-2.77-1.6 2.631-.72 2.634-.719-1.249 1.52zm-4.954 2.958-2.77-1.6 2.63-.72 2.634-.72-1.248 1.52zm-5.164 2.941-2.77-1.6 2.63-.72 2.634-.719-1.248 1.52zm-5.033 2.896-2.77-1.6 2.63-.72 2.634-.72-1.248 1.52zM8.656 22.37l-2.77-1.6 2.63-.72 2.635-.719-1.25 1.52z" stroke-linecap="round" stroke-width=".265"></path><path fill="#d2d2d4" d="M16.763 18.98v2.511l6.762 3.904z" fill-rule="evenodd"></path><path fill="#ececed" d="m.365 12.169 6.87 1.436L27.403 1.741 20.84.228z" fill-rule="evenodd"></path><path fill="none" stroke="#83838a" d="m16.872 18.988 6.761 6.415" stroke-width=".265"></path><path fill="none" stroke="#000000" d="m16.872 21.5 6.761 3.903 20.284-11.71-6.761-6.454L16.872 18.95z" stroke-width=".529"></path><path fill="#d2d2d4" d="M7.234 13.665.473 12.273l6.761 3.903z" fill-rule="evenodd"></path><path fill="#b8b8bb" d="M7.365 13.574v2.619l20.283-11.61V1.782z" fill-rule="evenodd"></path><path fill="none" stroke="#83838a" d="M7.288 13.627v2.55" stroke-width=".265"></path><path fill="none" d="m.473 12.273 6.761 3.903 20.284-11.71V1.811L7.196 13.631z"></path><path fill="none" stroke="#83838a" d="m.603 12.297 6.762 1.305 20.086-11.69" stroke-width=".265"></path><path fill="none" stroke="#000000" d="m.526 12.285 6.839 3.949L27.648 4.523V1.865L20.888.281z" stroke-width=".529"></path></svg></g></g><g><g id="1b19c323-1b14-412e-8922-d1dcce27bde9"><g><polygon points="-448 592, -384 629, -448 666, -512 629" fill="#ececed"></polygon><polygon points="-512 666, -448 703, -448 666, -512 629" fill="#d2d2d4" stroke="#83838a"></polygon><polygon points="-448 703, -384 666, -384 629, -448 666" fill="#b8b8bb" stroke="#83838a"></polygon><polygon points="-448 592, -512 629, -512 666, -448 703, -384 666, -384 629" fill="none" stroke="#000000" stroke-width="2"></polygon></g></g></g></g><g pointer-events="auto"></g><g pointer-events="auto"></g><g pointer-events="auto"><g><g id="4fc2d4ef-c883-4c9f-bb81-a81b0d3931da" transform="translate(0 0)"><svg x="-544" y="648" overflow="visible"><text stroke="#ffffff" stroke-width="4" font-family="Open Sans" y="36.5" font-size="25pt" fill="#000000" font-weight="bold" transform="matrix(0.707 0.409 -0.707 0.409 0 0)" xml:space="preserve"><tspan x="8" dy="0">Producer</tspan></text><text font-family="Open Sans" y="36.5" font-size="25pt" fill="#000000" font-weight="bold" transform="matrix(0.707 0.409 -0.707 0.409 0 0)" xml:space="preserve"><tspan x="8" dy="0">Producer</tspan></text></svg></g></g><g><g id="a33fa129-9601-404b-9651-5765028fd4d2" transform="translate(0 0)"><svg x="-368" y="546" overflow="visible"><text stroke="#ffffff" stroke-width="4" font-family="Open Sans" y="36.5" font-size="25pt" fill="#000000" font-weight="bold" transform="matrix(0.707 0.409 -0.707 0.409 0 0)" xml:space="preserve"><tspan x="8" dy="0">FIFO queue</tspan></text><text font-family="Open Sans" y="36.5" font-size="25pt" fill="#000000" font-weight="bold" transform="matrix(0.707 0.409 -0.707 0.409 0 0)" xml:space="preserve"><tspan x="8" dy="0">FIFO queue</tspan></text></svg></g></g><g><g id="a229850f-952e-4194-8bc7-97fed1a79725" transform="translate(0 0)"><svg x="-176" y="435" overflow="visible"><text stroke="#ffffff" stroke-width="4" font-family="Open Sans" y="36.5" font-size="25pt" fill="#000000" font-weight="bold" transform="matrix(0.707 0.409 -0.707 0.409 0 0)" xml:space="preserve"><tspan x="8" dy="0">Consumer </tspan></text><text font-family="Open Sans" y="36.5" font-size="25pt" fill="#000000" font-weight="bold" transform="matrix(0.707 0.409 -0.707 0.409 0 0)" xml:space="preserve"><tspan x="8" dy="0">Consumer </tspan></text></svg></g></g><g><g id="4f007e10-5dab-4603-bf2a-b1a9bb833481" transform="translate(0 0)"><svg x="-176" y="194" overflow="visible"><text stroke="#ffffff" stroke-width="4" font-family="Open Sans" y="36.5" font-size="25pt" fill="#000000" font-weight="bold" transform="matrix(0.707 0.409 -0.707 0.409 0 0)" xml:space="preserve"><tspan x="8" dy="0">Memory Usage Metrics</tspan></text><text font-family="Open Sans" y="36.5" font-size="25pt" fill="#000000" font-weight="bold" transform="matrix(0.707 0.409 -0.707 0.409 0 0)" xml:space="preserve"><tspan x="8" dy="0">Memory Usage Metrics</tspan></text></svg></g></g><g><g id="aedf36ea-4196-46af-b267-c39491de208b" transform="translate(0 0)"><svg x="144" y="379" overflow="visible"><text stroke="#ffffff" stroke-width="4" font-family="Open Sans" y="36.5" font-size="25pt" fill="#000000" font-weight="bold" transform="matrix(0.707 0.409 -0.707 0.409 0 0)" xml:space="preserve"><tspan x="8" dy="0">Faulty metrics</tspan></text><text font-family="Open Sans" y="36.5" font-size="25pt" fill="#000000" font-weight="bold" transform="matrix(0.707 0.409 -0.707 0.409 0 0)" xml:space="preserve"><tspan x="8" dy="0">Faulty metrics</tspan></text></svg></g></g></g></g></svg>